<?xml version="1.0" standalone="no"?>
<!DOCTYPE svg PUBLIC "-//W3C//DTD SVG 20010904//EN"
 "http://www.w3.org/TR/2001/REC-SVG-20010904/DTD/svg10.dtd">
<svg version="1.0" xmlns="http://www.w3.org/2000/svg"
 width="833.000000pt" height="559.000000pt" viewBox="0 0 833.000000 559.000000"
 preserveAspectRatio="xMidYMid meet">

<g transform="translate(0.000000,559.000000) scale(0.100000,-0.100000)"
fill="#000000" stroke="none">
<path d="M5795 2409 c-16 -5 -36 -16 -42 -26 -16 -21 -19 -897 -3 -937 16 -42
66 -66 137 -66 83 0 111 14 123 62 7 24 10 191 8 461 -2 338 -6 427 -17 449
-28 54 -126 81 -206 57z m118 -16 c-7 -2 -19 -2 -25 0 -7 3 -2 5 12 5 14 0 19
-2 13 -5z m67 -37 c0 -3 -4 -8 -10 -11 -5 -3 -10 -1 -10 4 0 6 5 11 10 11 6 0
10 -2 10 -4z m-223 -118 c-2 -18 -4 -4 -4 32 0 36 2 50 4 33 2 -18 2 -48 0
-65z m240 60 c-3 -8 -6 -5 -6 6 -1 11 2 17 5 13 3 -3 4 -12 1 -19z m13 -78 c0
-5 -4 -10 -10 -10 -5 0 -10 5 -10 10 0 6 5 10 10 10 6 0 10 -4 10 -10z m-253
-122 c-3 -7 -5 -2 -5 12 0 14 2 19 5 13 2 -7 2 -19 0 -25z m240 -150 c-2 -13
-4 -5 -4 17 -1 22 1 32 4 23 2 -10 2 -28 0 -40z m-240 -35 c-2 -16 -4 -3 -4
27 0 30 2 43 4 28 2 -16 2 -40 0 -55z m240 -25 c-3 -7 -5 -2 -5 12 0 14 2 19
5 13 2 -7 2 -19 0 -25z m-240 -310 c-1 -51 -3 -10 -3 92 0 102 2 143 3 93 2
-51 2 -135 0 -185z m240 -10 c-3 -7 -5 -2 -5 12 0 14 2 19 5 13 2 -7 2 -19 0
-25z m-223 -114 c3 -8 2 -12 -4 -9 -6 3 -10 10 -10 16 0 14 7 11 14 -7z m219
-24 c-3 -12 -8 -19 -11 -16 -5 6 5 36 12 36 2 0 2 -9 -1 -20z m-193 -10 c0 -5
-2 -10 -4 -10 -3 0 -8 5 -11 10 -3 6 -1 10 4 10 6 0 11 -4 11 -10z m165 -18
c-3 -3 -11 0 -18 7 -9 10 -8 11 6 5 10 -3 15 -9 12 -12z m-72 -9 c-7 -2 -19
-2 -25 0 -7 3 -2 5 12 5 14 0 19 -2 13 -5z"/>
<path d="M6628 2404 c-46 -25 -49 -58 -46 -522 3 -461 3 -459 58 -487 43 -22
152 -20 181 4 24 19 24 23 29 238 4 187 8 223 23 246 11 17 26 27 41 27 46 0
51 -19 56 -239 4 -178 8 -211 23 -235 11 -16 24 -25 33 -22 7 3 13 0 11 -6 -3
-16 61 -31 113 -25 81 9 80 5 80 351 0 293 -1 303 -22 346 -32 61 -65 83 -138
88 -80 6 -139 -17 -185 -71 l-35 -41 0 138 c0 156 -8 183 -64 210 -42 20 -122
20 -158 0z m22 -17 c-14 -8 -27 -12 -30 -10 -7 6 23 23 40 23 8 0 4 -6 -10
-13z m167 -23 c3 -8 0 -21 -6 -27 -9 -9 -11 -8 -5 7 4 11 2 21 -7 27 -10 6
-11 9 -1 9 7 0 15 -7 19 -16z m20 -146 c-2 -18 -4 -4 -4 32 0 36 2 50 4 33 2
-18 2 -48 0 -65z m241 -65 c-10 -2 -26 -2 -35 0 -10 3 -2 5 17 5 19 0 27 -2
18 -5z m87 -32 c3 -5 2 -12 -3 -15 -5 -3 -9 1 -9 9 0 17 3 19 12 6z m-328 -23
c-3 -8 -6 -5 -6 6 -1 11 2 17 5 13 3 -3 4 -12 1 -19z m83 9 c0 -2 -10 -12 -22
-23 l-23 -19 19 23 c18 21 26 27 26 19z m297 -329 c-2 -29 -3 -8 -3 47 0 55 1
79 3 53 2 -26 2 -71 0 -100z m-229 81 c-3 -8 -7 -3 -11 10 -4 17 -3 21 5 13 5
-5 8 -16 6 -23z m-151 -246 c-1 -43 -3 -10 -3 72 0 83 2 118 3 78 2 -40 2
-107 0 -150z m380 25 c-2 -18 -4 -6 -4 27 0 33 2 48 4 33 2 -15 2 -42 0 -60z
m0 -150 c-3 -7 -5 -2 -5 12 0 14 2 19 5 13 2 -7 2 -19 0 -25z m-220 -20 c-3
-7 -5 -2 -5 12 0 14 2 19 5 13 2 -7 2 -19 0 -25z m-372 -28 c3 -5 1 -10 -4
-10 -6 0 -11 5 -11 10 0 6 2 10 4 10 3 0 8 -4 11 -10z m155 -40 c0 -5 -21 -9
-47 -8 l-48 1 45 7 c25 4 46 8 48 8 1 1 2 -2 2 -8z"/>
<path d="M3475 2379 c-46 -26 -45 -21 -45 -476 0 -479 0 -478 62 -504 44 -19
115 -16 155 4 55 29 63 58 63 222 l0 146 100 -3 99 -3 4 -155 c2 -99 8 -163
16 -178 37 -69 221 -70 256 -2 21 41 22 833 1 884 -23 56 -59 76 -137 76 -62
0 -72 -3 -101 -29 l-33 -29 0 -171 0 -171 -105 0 -105 0 3 122 c4 159 -2 201
-38 241 -26 29 -33 32 -101 34 -43 2 -82 -1 -94 -8z m525 -13 c0 -2 -7 -7 -16
-10 -8 -3 -12 -2 -9 4 6 10 25 14 25 6z m-317 -62 c5 -30 -4 -21 -22 20 -10
25 -10 28 2 17 8 -6 17 -23 20 -37z m475 21 c-3 -3 -9 2 -12 12 -6 14 -5 15 5
6 7 -7 10 -15 7 -18z m-711 -628 c-1 -111 -2 -17 -2 208 0 226 1 316 2 202 2
-115 2 -299 0 -410z m730 571 c-3 -7 -5 -2 -5 12 0 14 2 19 5 13 2 -7 2 -19 0
-25z m-490 -20 c-3 -8 -6 -5 -6 6 -1 11 2 17 5 13 3 -3 4 -12 1 -19z m10 -60
c-3 -7 -5 -2 -5 12 0 14 2 19 5 13 2 -7 2 -19 0 -25z m480 -10 c-3 -8 -6 -5
-6 6 -1 11 2 17 5 13 3 -3 4 -12 1 -19z m-434 -215 c-7 -2 -19 -2 -25 0 -7 3
-2 5 12 5 14 0 19 -2 13 -5z m120 -180 c-29 -2 -77 -2 -105 0 -29 2 -6 3 52 3
58 0 81 -1 53 -3z m74 -260 c-3 -10 -5 -2 -5 17 0 19 2 27 5 18 2 -10 2 -26 0
-35z m0 -45 c-3 -8 -6 -5 -6 6 -1 11 2 17 5 13 3 -3 4 -12 1 -19z m223 -52
l-21 -21 18 32 c10 18 20 28 22 22 2 -6 -6 -21 -19 -33z m-200 14 c-10 -6 -11
-10 -2 -10 6 0 12 -5 12 -11 0 -8 -5 -8 -15 1 -16 13 -11 30 8 30 7 0 6 -4 -3
-10z m-345 -30 c-3 -5 -12 -10 -18 -10 -7 0 -6 4 3 10 19 12 23 12 15 0z m515
-5 c0 -1 -12 -2 -26 -2 -17 0 -22 2 -13 7 10 7 39 3 39 -5z"/>
<path d="M1638 2351 c-15 -12 -31 -36 -37 -54 -5 -17 -22 -211 -36 -429 -23
-336 -25 -401 -13 -425 19 -39 54 -55 116 -50 44 3 59 9 85 36 l32 31 0 245
c0 135 3 245 6 245 4 0 10 -17 14 -37 14 -79 95 -345 121 -399 50 -106 137
-123 210 -42 34 37 48 71 109 273 32 105 63 195 68 200 6 6 7 1 4 -15 -11 -48
-20 -335 -12 -414 10 -107 28 -126 119 -126 36 0 76 5 90 11 51 24 52 38 23
476 -28 417 -35 461 -75 482 -32 17 -113 13 -158 -8 -67 -31 -86 -67 -163
-310 -39 -123 -73 -226 -75 -229 -3 -3 -7 1 -10 9 -2 8 -18 64 -35 126 -60
218 -116 335 -186 389 -31 23 -50 29 -104 32 -56 3 -70 1 -93 -17z"/>
<path d="M6204 2342 c-42 -27 -58 -70 -50 -137 l6 -55 -43 0 c-24 0 -48 -5
-55 -12 -7 -7 -12 -40 -12 -78 0 -77 16 -100 68 -100 l32 0 0 -172 c0 -253 18
-326 93 -382 42 -31 179 -35 225 -6 42 26 53 58 50 144 l-3 71 -32 3 c-49 5
-56 28 -61 195 l-4 147 39 0 c21 0 47 6 57 13 23 17 32 93 16 141 -11 35 -13
36 -61 36 l-48 0 7 33 c15 68 8 115 -21 144 -24 24 -36 28 -100 31 -58 2 -78
-1 -103 -16z m-14 -42 c-6 -11 -8 -26 -4 -33 5 -9 4 -9 -5 -1 -10 9 -10 17 -2
33 7 12 14 21 17 21 2 0 0 -9 -6 -20z m228 -31 c-3 -20 -5 -19 -9 9 -3 20 -2
29 4 23 5 -5 7 -19 5 -32z m-241 -106 c-3 -10 -5 -2 -5 17 0 19 2 27 5 18 2
-10 2 -26 0 -35z m291 -30 c-10 -2 -26 -2 -35 0 -10 3 -2 5 17 5 19 0 27 -2
18 -5z m50 -44 c-3 -20 -5 -19 -9 9 -3 20 -2 29 4 23 5 -5 7 -19 5 -32z m-5
-94 c-3 -9 -8 -14 -10 -11 -3 3 -2 9 2 15 9 16 15 13 8 -4z m-409 -14 c4 -5
-3 -7 -14 -4 -23 6 -26 13 -6 13 8 0 17 -4 20 -9z m386 5 c0 -2 -7 -7 -16 -10
-8 -3 -12 -2 -9 4 6 10 25 14 25 6z m-83 -113 c-3 -10 -5 -2 -5 17 0 19 2 27
5 18 2 -10 2 -26 0 -35z m-240 -75 c-3 -7 -5 -2 -5 12 0 14 2 19 5 13 2 -7 2
-19 0 -25z m240 0 c-3 -8 -6 -5 -6 6 -1 11 2 17 5 13 3 -3 4 -12 1 -19z m0
-65 c-3 -10 -5 -4 -5 12 0 17 2 24 5 18 2 -7 2 -21 0 -30z m-230 -165 c-3 -7
-5 -2 -5 12 0 14 2 19 5 13 2 -7 2 -19 0 -25z m330 -20 c-2 -13 -4 -5 -4 17
-1 22 1 32 4 23 2 -10 2 -28 0 -40z m-22 -110 c-10 -13 -14 -16 -11 -8 3 8 9
24 13 35 4 11 8 14 11 7 2 -6 -4 -22 -13 -34z m-122 -45 c-7 -2 -21 -2 -30 0
-10 3 -4 5 12 5 17 0 24 -2 18 -5z"/>
<path d="M3120 2163 c-56 -29 -60 -47 -60 -258 0 -202 -6 -244 -42 -282 -26
-28 -39 -29 -69 -4 -24 19 -24 23 -29 228 -6 232 -12 255 -80 300 -41 29 -142
32 -179 7 l-23 -16 4 -292 c4 -311 6 -323 59 -390 68 -86 240 -87 318 -2 31
33 41 33 41 -1 0 -52 -22 -107 -55 -140 -47 -47 -104 -46 -204 2 -41 20 -81
33 -88 31 -19 -8 -43 -68 -43 -108 0 -18 9 -47 20 -65 54 -90 271 -118 417
-53 59 26 125 90 156 152 49 97 57 164 57 496 0 319 -3 346 -47 385 -31 27
-110 32 -153 10z"/>
<path d="M4505 2156 c-55 -17 -80 -32 -127 -74 -81 -73 -112 -177 -106 -352 4
-124 24 -189 81 -255 110 -130 408 -134 494 -6 34 50 29 147 -9 172 -5 3 -30
-5 -55 -18 -34 -17 -63 -23 -111 -23 -59 0 -66 2 -98 34 -19 19 -34 39 -34 44
0 6 49 12 124 14 122 3 125 4 163 34 58 47 76 85 81 175 4 70 2 85 -22 133
-30 61 -78 100 -152 122 -57 17 -174 17 -229 0z m138 -3 c-13 -2 -35 -2 -50 0
-16 2 -5 4 22 4 28 0 40 -2 28 -4z m64 -9 c-3 -3 -12 -4 -19 -1 -8 3 -5 6 6 6
11 1 17 -2 13 -5z m-310 -72 c-10 -10 -14 -22 -10 -27 5 -4 2 -5 -5 -1 -11 6
-10 12 4 27 9 10 19 19 22 19 3 0 -2 -8 -11 -18z m493 -84 c0 -27 -15 -22 -16
5 0 12 -4 31 -8 42 -5 13 -2 11 8 -5 8 -14 15 -33 16 -42z m-559 -1 c-10 -9
-11 -8 -5 6 3 10 9 15 12 12 3 -3 0 -11 -7 -18z m303 -23 c10 -10 16 -33 16
-65 l0 -49 -60 0 c-66 0 -72 8 -49 67 22 59 61 79 93 47z m263 -36 c-3 -8 -6
-5 -6 6 -1 11 2 17 5 13 3 -3 4 -12 1 -19z m-386 -51 c-10 -9 -11 -8 -5 6 3
10 9 15 12 12 3 -3 0 -11 -7 -18z m376 -34 c-3 -10 -5 -4 -5 12 0 17 2 24 5
18 2 -7 2 -21 0 -30z m-600 -100 c-2 -21 -4 -6 -4 32 0 39 2 55 4 38 2 -18 2
-50 0 -70z m401 -40 c-27 -2 -69 -2 -95 0 -27 2 -5 3 47 3 52 0 74 -1 48 -3z
m-391 -65 c-3 -8 -6 -5 -6 6 -1 11 2 17 5 13 3 -3 4 -12 1 -19z m560 -110 c-3
-7 -5 -2 -5 12 0 14 2 19 5 13 2 -7 2 -19 0 -25z m-26 -61 l-24 -22 19 27 c10
14 21 24 23 22 3 -3 -6 -15 -18 -27z m-106 -64 c-21 -7 -40 -11 -43 -9 -2 3 7
8 22 12 14 3 26 10 26 15 0 5 8 5 17 2 12 -5 7 -10 -22 -20z"/>
<path d="M5113 2145 c-112 -56 -162 -203 -150 -438 8 -151 26 -207 86 -267 40
-40 58 -50 105 -60 101 -21 191 12 211 78 10 36 25 43 25 12 0 -11 13 -34 29
-52 25 -28 36 -32 90 -36 42 -3 71 0 88 9 50 27 53 52 53 394 l0 317 -29 29
c-25 25 -37 29 -81 29 -31 0 -64 -7 -81 -17 -28 -17 -59 -67 -59 -96 0 -9 -4
-19 -10 -22 -6 -3 -10 4 -10 18 0 34 -39 87 -80 108 -50 27 -125 25 -187 -6z
m110 8 c-7 -2 -21 -2 -30 0 -10 3 -4 5 12 5 17 0 24 -2 18 -5z m320 -10 c-7
-2 -21 -2 -30 0 -10 3 -4 5 12 5 17 0 24 -2 18 -5z m87 -43 c0 -16 -26 -5 -27
12 -2 16 1 17 13 8 8 -7 14 -16 14 -20z m-590 -50 c-6 -11 -13 -20 -16 -20 -2
0 0 9 6 20 6 11 13 20 16 20 2 0 0 -9 -6 -20z m383 -5 c-3 -9 -8 -14 -10 -11
-3 3 -2 9 2 15 9 16 15 13 8 -4z m-399 -40 c-4 -8 -8 -15 -10 -15 -2 0 -4 7
-4 15 0 8 4 15 10 15 5 0 7 -7 4 -15z m318 -75 c2 4 10 1 18 -8 13 -14 12 -15
-4 -9 -16 6 -17 4 -10 -20 15 -46 11 -246 -5 -276 -23 -44 -55 -45 -81 -4 -21
34 -25 181 -5 247 9 30 16 60 17 66 1 7 13 9 34 4 18 -4 34 -4 36 0z m-355
-62 c-3 -8 -6 -5 -6 6 -1 11 2 17 5 13 3 -3 4 -12 1 -19z m241 -150 c-1 -69
-1 -70 -7 -23 -3 28 -4 60 -2 73 7 43 11 21 9 -50z m143 -85 c-12 -20 -14 -14
-5 12 4 9 9 14 11 11 3 -2 0 -13 -6 -23z m-320 -170 c13 -16 12 -17 -3 -4 -17
13 -22 21 -14 21 2 0 10 -8 17 -17z m369 -4 c0 -6 -4 -7 -10 -4 -5 3 -10 11
-10 16 0 6 5 7 10 4 6 -3 10 -11 10 -16z m190 -44 c-7 -8 -17 -15 -23 -15 -6
0 -3 6 8 13 11 9 15 19 10 28 -6 11 -5 12 5 2 11 -10 11 -15 0 -28z m-305 -5
c-3 -5 -12 -10 -18 -10 -7 0 -6 4 3 10 19 12 23 12 15 0z m-126 -16 c10 -9
-35 -3 -49 6 -11 8 -7 9 15 4 17 -4 32 -8 34 -10z m91 6 c0 -5 -17 -9 -37 -9
l-38 2 35 7 c19 4 36 8 38 9 1 0 2 -3 2 -9z m283 -7 c-7 -2 -21 -2 -30 0 -10
3 -4 5 12 5 17 0 24 -2 18 -5z"/>
</g>
</svg>
